# xmcd CD database file generated by Grip 2.95
# 
# Track frame offsets:
#       150
#       9895
#       23822
#       35905
#       63547
#       68966
#       83898
#       98512
#       122276
#       155181
#       173957
#       188897
#       205394
# 
# Disc length: 3114 seconds
# 
# Revision: 3
# Processed by: cddbd v1.4b41PL1 Copyright (c) Steve Scherf et al.
# Submitted via: Grip 2.95
# 
DISCID=ac0c280d
DTITLE=El Max - ... eins
DYEAR=1900
DGENRE=
TTITLE0=Oi-Ska
TTITLE1=May of `97
TTITLE2=TV Apathy
TTITLE3=WWW
TTITLE4=Cocaine Brain
TTITLE5=Mary u`re Anna
TTITLE6=Sorry but ...
TTITLE7=Hey-Ho to go
TTITLE8=Fuck U
TTITLE9=No Sympathy
TTITLE10=Cowboy Dance
TTITLE11=Girls
TTITLE12=Tax State
EXTD=
EXTT0=
EXTT1=
EXTT2=
EXTT3=
EXTT4=
EXTT5=
EXTT6=
EXTT7=
EXTT8=
EXTT9=
EXTT10=
EXTT11=
EXTT12=
PLAYORDER=
